# xmcd
#
# Track frame offsets:
#	150
#	18994
#	38634
#	55071
#	74579
#	87588
#	112040
#	139263
#	163639
#	190050
#	204802
#	228747
#	245700
#
# Disc length: 3494 seconds
#
# Revision: 1
# Processed by: cddbd v1.5.1PL0 Copyright (c) Steve Scherf et al.
# Submitted via: EasyCDDAExtractor 5.0.6
#
DISCID=b70da40d
DTITLE=Beaucoup Blue - Hearts At Home
DYEAR=2005
DGENRE=Blues
TTITLE0=Little Wheel
TTITLE1=On My Way
TTITLE2=Make Me A Palet On Your Floor
TTITLE3=Lonesome Blues
TTITLE4=Stompin' At The Savoy
TTITLE5=Rainy Night In Georgia
TTITLE6=On The Corner
TTITLE7=I Heard Gabreil Singing
TTITLE8=Four In The Morning
TTITLE9=It Hurts Me Too
TTITLE10=Heartache On Horizon
TTITLE11=I Surrender
TTITLE12=Hearts At Home
EXTD=
EXTT0=
EXTT1=
EXTT2=
EXTT3=
EXTT4=
EXTT5=
EXTT6=
EXTT7=
EXTT8=
EXTT9=
EXTT10=
EXTT11=
EXTT12=
PLAYORDER=
